Release info:

General
Format                                   : Matroska
Format version                           : Version 4 / Version 2
File size                                : 691 MiB
Duration                                 : 2h 18mn
Overall bit rate                         : 697 Kbps

Video
ID                                       : 1
Format                                   : MPEG-4 Visual
Format profile                           : Advanced Simple@L5
Format settings, BVOP                    : Yes
Format settings, QPel                    : No
Format settings, GMC                     : No warppoints
Format settings, Matrix                  : Default (H.263)
Codec ID                                 : V_MS/VFW/FOURCC / XVID
Codec ID/Hint                            : XviD
Duration                                 : 2h 18mn
Bit rate                                 : 571 Kbps
Width                                    : 608 pixels
Height                                   : 256 pixels
Display aspect ratio                     : 2.40:1
Frame rate mode                          : Constant
Frame rate                               : 23.976 fps
Color space                              : YUV
Chroma subsampling                       : 4:2:0
Bit depth                                : 8 bits
Scan type                                : Progressive
Compression mode                         : Lossy
Bits/(Pixel*Frame)                       : 0.153
Stream size                              : 566 MiB (82%)
Language                                 : English
Default                                  : Yes
Forced                                   : No

Audio
ID                                       : 2
Format                                   : MPEG Audio
Format version                           : Version 1
Format profile                           : Layer 3
Mode                                     : Joint stereo
Mode extension                           : MS Stereo
Codec ID                                 : A_MPEG/L3
Codec ID/Hint                            : MP3
Duration                                 : 2h 18mn
Bit rate mode                            : Constant
Bit rate                                 : 112 Kbps
Channel(s)                               : 2 channels
Sampling rate                            : 48.0 KHz
Compression mode                         : Lossy
Stream size                              : 111 MiB (16%)
Language                                 : English
Default                                  : Yes
Forced                                   : No

Text
ID                                       : 3
Format                                   : UTF-8
Codec ID                                 : S_TEXT/UTF8
Codec ID/Info                            : UTF-8 Plain Text
Language                                 : English
Default                                  : Yes
Forced                                   : No



Source:
credit to original movie ripper SPARKS (Thanks)

IMDB Info:

An airline pilot saves a flight from crashing, but an investigation into the malfunctions reveals something troubling.

Director: Robert Zemeckis
Writer: John Gatins
Stars: Denzel Washington, Nadine Velazquez, Don Cheadle 

Genres: Drama
 
http://www.imdb.com/title/tt1907668/

Screen Shot:
 
http://www.shotpix.com/images/19464195281877746144.png 
http://www.shotpix.com/images/88488341210657612801.png 
http://www.shotpix.com/images/13920971296695267368.png 
http://www.shotpix.com/images/96362273974998867765.png